<svg width="20" height="20" viewBox="0 0 20 20" fill="none" xmlns="http://www.w3.org/2000/svg">
<path d="M1.875 4.6875C1.875 3.94158 2.17132 3.22621 2.69876 2.69876C3.22621 2.17132 3.94158 1.875 4.6875 1.875H15.3125C16.0584 1.875 16.7738 2.17132 17.3012 2.69876C17.8287 3.22621 18.125 3.94158 18.125 4.6875V15.3125C18.125 16.0584 17.8287 16.7738 17.3012 17.3012C16.7738 17.8287 16.0584 18.125 15.3125 18.125H4.6875C3.94158 18.125 3.22621 17.8287 2.69876 17.3012C2.17132 16.7738 1.875 16.0584 1.875 15.3125V4.6875ZM2.5 13.125V15.3125C2.5 15.8927 2.73047 16.4491 3.1407 16.8593C3.55094 17.2695 4.10734 17.5 4.6875 17.5H6.875V13.125H2.5ZM6.875 12.5V7.5H2.5V12.5H6.875ZM7.5 13.125V17.5H12.5V13.125H7.5ZM12.5 12.5V7.5H7.5V12.5H12.5ZM13.125 13.125V17.5H15.3125C15.8927 17.5 16.4491 17.2695 16.8593 16.8593C17.2695 16.4491 17.5 15.8927 17.5 15.3125V13.125H13.125ZM17.5 12.5V7.5H13.125V12.5H17.5ZM4.6875 2.5C4.10734 2.5 3.55094 2.73047 3.1407 3.1407C2.73047 3.55094 2.5 4.10734 2.5 4.6875V6.875H6.875V2.5H4.6875ZM12.5 2.5H7.5V6.875H12.5V2.5ZM13.125 2.5V6.875H17.5V4.6875C17.5 4.10734 17.2695 3.55094 16.8593 3.1407C16.4491 2.73047 15.8927 2.5 15.3125 2.5H13.125Z" fill="black"/>
</svg>
