<svg width="26" height="26" viewBox="0 0 26 26" fill="none" xmlns="http://www.w3.org/2000/svg">
<path d="M2.4375 6.09375C2.4375 5.12405 2.82271 4.19407 3.50839 3.50839C4.19407 2.82271 5.12405 2.4375 6.09375 2.4375H19.9062C20.8759 2.4375 21.8059 2.82271 22.4916 3.50839C23.1773 4.19407 23.5625 5.12405 23.5625 6.09375V19.9062C23.5625 20.8759 23.1773 21.8059 22.4916 22.4916C21.8059 23.1773 20.8759 23.5625 19.9062 23.5625H6.09375C5.12405 23.5625 4.19407 23.1773 3.50839 22.4916C2.82271 21.8059 2.4375 20.8759 2.4375 19.9062V6.09375ZM3.25 17.0625V19.9062C3.25 20.6605 3.54961 21.3838 4.08292 21.9171C4.61622 22.4504 5.33954 22.75 6.09375 22.75H8.9375V17.0625H3.25ZM8.9375 16.25V9.75H3.25V16.25H8.9375ZM9.75 17.0625V22.75H16.25V17.0625H9.75ZM16.25 16.25V9.75H9.75V16.25H16.25ZM17.0625 17.0625V22.75H19.9062C20.6605 22.75 21.3838 22.4504 21.9171 21.9171C22.4504 21.3838 22.75 20.6605 22.75 19.9062V17.0625H17.0625ZM22.75 16.25V9.75H17.0625V16.25H22.75ZM6.09375 3.25C5.33954 3.25 4.61622 3.54961 4.08292 4.08292C3.54961 4.61622 3.25 5.33954 3.25 6.09375V8.9375H8.9375V3.25H6.09375ZM16.25 3.25H9.75V8.9375H16.25V3.25ZM17.0625 3.25V8.9375H22.75V6.09375C22.75 5.33954 22.4504 4.61622 21.9171 4.08292C21.3838 3.54961 20.6605 3.25 19.9062 3.25H17.0625Z" fill="#B3EFFF"/>
</svg>
