<svg width="24" height="24" viewBox="0 0 24 24" fill="none" xmlns="http://www.w3.org/2000/svg">
<path d="M19.4999 9.99998C19.4999 9.86737 19.4472 9.74019 19.3535 9.64642C19.2597 9.55266 19.1325 9.49998 18.9999 9.49998C18.8673 9.49998 18.7401 9.55266 18.6463 9.64642C18.5526 9.74019 18.4999 9.86737 18.4999 9.99998H19.4999ZM5.4999 9.99998C5.4999 9.86737 5.44722 9.74019 5.35345 9.64642C5.25968 9.55266 5.13251 9.49998 4.9999 9.49998C4.86729 9.49998 4.74011 9.55266 4.64635 9.64642C4.55258 9.74019 4.4999 9.86737 4.4999 9.99998H5.4999ZM20.6459 12.354C20.7398 12.4479 20.8671 12.5006 20.9999 12.5006C21.1327 12.5006 21.26 12.4479 21.3539 12.354C21.4478 12.2601 21.5005 12.1328 21.5005 12C21.5005 11.8672 21.4478 11.7399 21.3539 11.646L20.6459 12.354ZM11.9999 2.99998L12.3539 2.64598C12.3075 2.59941 12.2523 2.56247 12.1915 2.53727C12.1308 2.51206 12.0657 2.49908 11.9999 2.49908C11.9341 2.49908 11.869 2.51206 11.8083 2.53727C11.7475 2.56247 11.6923 2.59941 11.6459 2.64598L11.9999 2.99998ZM2.6459 11.646C2.55201 11.7399 2.49927 11.8672 2.49927 12C2.49927 12.1328 2.55201 12.2601 2.6459 12.354C2.73979 12.4479 2.86712 12.5006 2.9999 12.5006C3.13267 12.5006 3.26001 12.4479 3.3539 12.354L2.6459 11.646ZM6.9999 21.5H16.9999V20.5H6.9999V21.5ZM19.4999 19V9.99998H18.4999V19H19.4999ZM5.4999 19V9.99998H4.4999V19H5.4999ZM21.3539 11.646L12.3539 2.64598L11.6459 3.35398L20.6459 12.354L21.3539 11.646ZM11.6459 2.64598L2.6459 11.646L3.3539 12.354L12.3539 3.35398L11.6459 2.64598ZM16.9999 21.5C17.6629 21.5 18.2988 21.2366 18.7677 20.7677C19.2365 20.2989 19.4999 19.663 19.4999 19H18.4999C18.4999 19.3978 18.3419 19.7793 18.0606 20.0606C17.7793 20.3419 17.3977 20.5 16.9999 20.5V21.5ZM6.9999 20.5C6.60207 20.5 6.22054 20.3419 5.93924 20.0606C5.65793 19.7793 5.4999 19.3978 5.4999 19H4.4999C4.4999 19.663 4.76329 20.2989 5.23213 20.7677C5.70097 21.2366 6.33686 21.5 6.9999 21.5V20.5Z" fill="#B3EFFF"/>
</svg>
