<svg width="24" height="24" viewBox="0 0 24 24" fill="none" xmlns="http://www.w3.org/2000/svg">
<path d="M13.8573 5.46439C14.057 5.41851 14.266 5.43592 14.4553 5.51423C14.6446 5.59253 14.8048 5.72783 14.9137 5.90135L15.8941 7.46669C15.9732 7.59276 16.0798 7.69932 16.2058 7.77837L17.7712 8.75881C17.9451 8.86763 18.0807 9.02796 18.1592 9.21748C18.2377 9.407 18.2551 9.61627 18.2091 9.81617L17.7948 11.6153C17.7614 11.7607 17.7614 11.9118 17.7948 12.0572L18.2091 13.8573C18.2547 14.0569 18.237 14.2657 18.1585 14.4548C18.0801 14.6439 17.9447 14.8039 17.7712 14.9126L16.2058 15.8941C16.0798 15.9731 15.9732 16.0797 15.8941 16.2058L14.9137 17.7711C14.8049 17.9448 14.6448 18.0803 14.4555 18.1588C14.2662 18.2373 14.0571 18.2548 13.8573 18.209L12.0572 17.7948C11.9122 17.7615 11.7614 17.7615 11.6163 17.7948L9.81625 18.209C9.6165 18.2548 9.40744 18.2373 9.21812 18.1588C9.02881 18.0803 8.86864 17.9448 8.75987 17.7711L7.77944 16.2058C7.70011 16.0796 7.5932 15.973 7.46677 15.8941L5.90242 14.9136C5.72872 14.8049 5.59322 14.6447 5.51473 14.4554C5.43625 14.2661 5.41868 14.057 5.46448 13.8573L5.87776 12.0572C5.91118 11.9118 5.91118 11.7607 5.87776 11.6153L5.46349 9.81617C5.41757 9.61617 5.43517 9.40682 5.51385 9.21729C5.59252 9.02776 5.72835 8.86749 5.90242 8.75881L7.46677 7.77837C7.5932 7.69944 7.70011 7.59287 7.77944 7.46669L8.75987 5.90135C8.86871 5.72802 9.02878 5.59284 9.21788 5.51455C9.40698 5.43626 9.61576 5.41873 9.81527 5.46439L11.6163 5.87768C11.7614 5.91094 11.9122 5.91094 12.0572 5.87768L13.8573 5.46439Z" stroke="#B3EFFF"/>
<path d="M9.38525 12.3649L11.3925 14.2873L14.2874 9.38513" stroke="#B3EFFF" stroke-linecap="round" stroke-linejoin="round"/>
</svg>
