<svg width="324" height="68" viewBox="0 0 324 68" fill="none" xmlns="http://www.w3.org/2000/svg">
<path d="M6.466 22.06C6.466 19.986 6.18133 18.461 5.612 17.485C5.04267 16.4683 3.904 15.96 2.196 15.96H0.976V14.74H16.958C24.8473 14.74 30.805 16.4887 34.831 19.986C38.8977 23.4833 40.931 28.3633 40.931 34.626C40.931 38.652 40.077 42.2103 38.369 45.301C36.661 48.351 34.1193 50.73 30.744 52.438C27.4093 54.146 23.3427 55 18.544 55H6.466V22.06ZM18.361 52.865C21.3703 52.865 24.0747 52.133 26.474 50.669C28.914 49.1643 30.8253 47.07 32.208 44.386C33.5907 41.6613 34.282 38.4893 34.282 34.87C34.282 31.332 33.5907 28.2007 32.208 25.476C30.866 22.7513 28.975 20.6367 26.535 19.132C24.095 17.6273 21.3297 16.875 18.239 16.875C16.287 16.875 14.2537 17.2003 12.139 17.851V52.072C14.4163 52.6007 16.4903 52.865 18.361 52.865ZM59.1605 55.61C56.3951 55.61 54.0568 54.9593 52.1455 53.658C50.2341 52.316 48.7905 50.5267 47.8145 48.29C46.8385 46.0127 46.3505 43.471 46.3505 40.665C46.3505 37.8997 46.8385 35.3783 47.8145 33.101C48.7905 30.8237 50.1935 29.0343 52.0235 27.733C53.8941 26.391 56.0698 25.72 58.5505 25.72C62.6578 25.72 65.7078 26.879 67.7005 29.197C69.7338 31.4743 70.7505 34.7887 70.7505 39.14L70.6285 41.58H52.1455C52.1455 44.996 52.8775 47.7817 54.3415 49.937C55.8055 52.0923 57.8185 53.17 60.3805 53.17C62.2918 53.17 63.8981 52.7633 65.1995 51.95C66.5415 51.1367 67.7818 49.9167 68.9205 48.29L70.1405 49.205C68.7985 51.4417 67.2328 53.0683 65.4435 54.085C63.6541 55.1017 61.5598 55.61 59.1605 55.61ZM64.9555 39.14C64.9555 35.5613 64.4268 32.8367 63.3695 30.966C62.3121 29.0953 60.7058 28.16 58.5505 28.16C57.3305 28.16 56.2325 28.648 55.2565 29.624C54.2805 30.5593 53.5078 31.8607 52.9385 33.528C52.4098 35.1953 52.1455 37.066 52.1455 39.14H64.9555ZM79.1318 33.345C78.1558 31.0677 77.2204 29.4817 76.3258 28.587C75.4311 27.6517 74.2518 27.1433 72.7878 27.062V25.842C72.9911 25.842 73.2758 25.8217 73.6418 25.781C74.0484 25.7403 74.4551 25.72 74.8618 25.72C77.0171 25.72 78.9691 26.269 80.7178 27.367C82.4664 28.4243 83.9711 30.417 85.2318 33.345L90.7218 46.46L99.2618 26.33H102.312L89.8068 55.61H88.5868L79.1318 33.345ZM125.008 56.22C121.226 56.22 117.891 55.305 115.004 53.475C112.157 51.645 109.961 49.1643 108.416 46.033C106.871 42.861 106.098 39.3433 106.098 35.48C106.098 31.4947 106.932 27.8143 108.599 24.439C110.307 21.0637 112.605 18.4 115.492 16.448C118.42 14.496 121.592 13.52 125.008 13.52C128.261 13.52 131.108 13.9877 133.548 14.923C136.029 15.8177 137.859 16.9767 139.038 18.4C139.729 19.254 140.156 20.3927 140.319 21.816C140.482 23.1987 140.563 25.11 140.563 27.55H139.343C138.57 23.6053 137.147 20.6977 135.073 18.827C132.999 16.9157 130.254 15.96 126.838 15.96C122.446 15.96 118.908 17.5053 116.224 20.596C113.54 23.6867 112.198 28.648 112.198 35.48C112.198 38.6927 112.706 41.6817 113.723 44.447C114.78 47.2123 116.407 49.4693 118.603 51.218C120.799 52.926 123.544 53.78 126.838 53.78C129.807 53.78 132.389 53.0683 134.585 51.645C136.822 50.2217 138.814 48.0867 140.563 45.24L141.783 46.155C139.912 49.815 137.594 52.4177 134.829 53.963C132.104 55.4677 128.831 56.22 125.008 56.22ZM160.146 55.61C157.381 55.61 154.982 54.9593 152.948 53.658C150.915 52.316 149.37 50.5063 148.312 48.229C147.255 45.9517 146.726 43.4303 146.726 40.665C146.726 37.8997 147.255 35.3783 148.312 33.101C149.37 30.8237 150.915 29.0343 152.948 27.733C154.982 26.391 157.381 25.72 160.146 25.72C162.912 25.72 165.311 26.391 167.344 27.733C169.378 29.0343 170.923 30.8237 171.98 33.101C173.038 35.3783 173.566 37.8997 173.566 40.665C173.566 43.4303 173.038 45.9517 171.98 48.229C170.923 50.5063 169.378 52.316 167.344 53.658C165.311 54.9593 162.912 55.61 160.146 55.61ZM160.146 53.17C161.651 53.17 162.973 52.621 164.111 51.523C165.291 50.425 166.185 48.9203 166.795 47.009C167.446 45.0977 167.771 42.983 167.771 40.665C167.771 38.347 167.446 36.2323 166.795 34.321C166.185 32.4097 165.291 30.905 164.111 29.807C162.973 28.709 161.651 28.16 160.146 28.16C158.642 28.16 157.3 28.709 156.12 29.807C154.982 30.905 154.087 32.4097 153.436 34.321C152.826 36.2323 152.521 38.347 152.521 40.665C152.521 42.983 152.826 45.0977 153.436 47.009C154.087 48.9203 154.982 50.425 156.12 51.523C157.3 52.621 158.642 53.17 160.146 53.17ZM181.635 33.65C181.635 31.576 181.35 30.051 180.781 29.075C180.212 28.0583 179.073 27.55 177.365 27.55H176.145V26.33H181.635C183.14 26.33 184.278 26.5333 185.051 26.94C185.864 27.3467 186.454 27.9567 186.82 28.77H187.125C187.979 27.916 189.077 27.2043 190.419 26.635C191.802 26.025 193.347 25.72 195.055 25.72C198.105 25.72 200.586 26.5333 202.497 28.16C204.449 29.7867 205.425 32.6333 205.425 36.7V55H199.935V36.7C199.935 33.8533 199.284 31.7793 197.983 30.478C196.722 29.136 195.136 28.465 193.225 28.465C191.07 28.465 189.036 29.5427 187.125 31.698V55H181.635V33.65ZM214.816 33.65C214.816 31.576 214.531 30.051 213.962 29.075C213.392 28.0583 212.254 27.55 210.546 27.55H209.326V26.33H214.816C216.32 26.33 217.459 26.5333 218.232 26.94C219.045 27.3467 219.635 27.9567 220.001 28.77H220.306C221.16 27.916 222.258 27.2043 223.6 26.635C224.982 26.025 226.528 25.72 228.236 25.72C231.286 25.72 233.766 26.5333 235.678 28.16C237.63 29.7867 238.606 32.6333 238.606 36.7V55H233.116V36.7C233.116 33.8533 232.465 31.7793 231.164 30.478C229.903 29.136 228.317 28.465 226.406 28.465C224.25 28.465 222.217 29.5427 220.306 31.698V55H214.816V33.65ZM258.244 55.61C255.479 55.61 253.141 54.9593 251.229 53.658C249.318 52.316 247.874 50.5267 246.898 48.29C245.922 46.0127 245.434 43.471 245.434 40.665C245.434 37.8997 245.922 35.3783 246.898 33.101C247.874 30.8237 249.277 29.0343 251.107 27.733C252.978 26.391 255.154 25.72 257.634 25.72C261.742 25.72 264.792 26.879 266.784 29.197C268.818 31.4743 269.834 34.7887 269.834 39.14L269.712 41.58H251.229C251.229 44.996 251.961 47.7817 253.425 49.937C254.889 52.0923 256.902 53.17 259.464 53.17C261.376 53.17 262.982 52.7633 264.283 51.95C265.625 51.1367 266.866 49.9167 268.004 48.29L269.224 49.205C267.882 51.4417 266.317 53.0683 264.527 54.085C262.738 55.1017 260.644 55.61 258.244 55.61ZM264.039 39.14C264.039 35.5613 263.511 32.8367 262.453 30.966C261.396 29.0953 259.79 28.16 257.634 28.16C256.414 28.16 255.316 28.648 254.34 29.624C253.364 30.5593 252.592 31.8607 252.022 33.528C251.494 35.1953 251.229 37.066 251.229 39.14H264.039ZM288.64 55.61C285.712 55.61 283.231 54.9593 281.198 53.658C279.205 52.316 277.7 50.5267 276.684 48.29C275.708 46.0127 275.22 43.471 275.22 40.665C275.22 37.859 275.708 35.3377 276.684 33.101C277.7 30.8237 279.205 29.0343 281.198 27.733C283.231 26.391 285.712 25.72 288.64 25.72C293.113 25.72 296.061 26.4317 297.485 27.855C298.176 28.5463 298.603 29.4003 298.766 30.417C298.928 31.393 299.01 33.1823 299.01 35.785H297.79C297.627 33.2637 296.834 31.3727 295.411 30.112C293.987 28.8107 292.137 28.16 289.86 28.16C286.932 28.16 284.715 29.319 283.211 31.637C281.747 33.955 281.015 36.9643 281.015 40.665C281.015 44.3657 281.747 47.375 283.211 49.693C284.715 52.011 286.932 53.17 289.86 53.17C291.934 53.17 293.642 52.7837 294.984 52.011C296.326 51.1977 297.566 49.9573 298.705 48.29L299.925 49.205C298.583 51.4823 296.997 53.1293 295.167 54.146C293.337 55.122 291.161 55.61 288.64 55.61ZM314.833 55.61C312.556 55.61 310.766 54.9593 309.465 53.658C308.164 52.3567 307.513 50.364 307.513 47.68V28.77H303.243V26.33H307.513V20.84L310.563 17.18H313.003V26.33H320.323V28.77H313.003V47.68C313.003 51.34 314.426 53.17 317.273 53.17C318.249 53.17 319.062 53.0683 319.713 52.865C320.404 52.6617 321.116 52.3567 321.848 51.95L322.458 53.17C321.523 53.8613 320.486 54.451 319.347 54.939C318.208 55.3863 316.704 55.61 314.833 55.61Z" fill="#B3EFFF"/>
</svg>
