<svg width="171" height="39" viewBox="0 0 171 39" fill="none" xmlns="http://www.w3.org/2000/svg">
<path d="M3.286 11.26C3.286 10.206 3.14133 9.431 2.852 8.935C2.56267 8.41833 1.984 8.16 1.116 8.16H0.496V7.54H8.618C12.6273 7.54 15.655 8.42867 17.701 10.206C19.7677 11.9833 20.801 14.4633 20.801 17.646C20.801 19.692 20.367 21.5003 19.499 23.071C18.631 24.621 17.3393 25.83 15.624 26.698C13.9293 27.566 11.8627 28 9.424 28H3.286V11.26ZM9.331 26.915C10.8603 26.915 12.2347 26.543 13.454 25.799C14.694 25.0343 15.6653 23.97 16.368 22.606C17.0707 21.2213 17.422 19.6093 17.422 17.77C17.422 15.972 17.0707 14.3807 16.368 12.996C15.686 11.6113 14.725 10.5367 13.485 9.772C12.245 9.00733 10.8397 8.625 9.269 8.625C8.277 8.625 7.24367 8.79033 6.169 9.121V26.512C7.32633 26.7807 8.38033 26.915 9.331 26.915ZM30.0652 28.31C28.6598 28.31 27.4715 27.9793 26.5002 27.318C25.5288 26.636 24.7952 25.7267 24.2992 24.59C23.8032 23.4327 23.5552 22.141 23.5552 20.715C23.5552 19.3097 23.8032 18.0283 24.2992 16.871C24.7952 15.7137 25.5082 14.8043 26.4382 14.143C27.3888 13.461 28.4945 13.12 29.7552 13.12C31.8425 13.12 33.3925 13.709 34.4052 14.887C35.4385 16.0443 35.9552 17.7287 35.9552 19.94L35.8932 21.18H26.5002C26.5002 22.916 26.8722 24.3317 27.6162 25.427C28.3602 26.5223 29.3832 27.07 30.6852 27.07C31.6565 27.07 32.4728 26.8633 33.1342 26.45C33.8162 26.0367 34.4465 25.4167 35.0252 24.59L35.6452 25.055C34.9632 26.1917 34.1675 27.0183 33.2582 27.535C32.3488 28.0517 31.2845 28.31 30.0652 28.31ZM33.0102 19.94C33.0102 18.1213 32.7415 16.7367 32.2042 15.786C31.6668 14.8353 30.8505 14.36 29.7552 14.36C29.1352 14.36 28.5772 14.608 28.0812 15.104C27.5852 15.5793 27.1925 16.2407 26.9032 17.088C26.6345 17.9353 26.5002 18.886 26.5002 19.94H33.0102ZM40.2145 16.995C39.7185 15.8377 39.2432 15.0317 38.7885 14.577C38.3338 14.1017 37.7345 13.8433 36.9905 13.802V13.182C37.0938 13.182 37.2385 13.1717 37.4245 13.151C37.6312 13.1303 37.8378 13.12 38.0445 13.12C39.1398 13.12 40.1318 13.399 41.0205 13.957C41.9092 14.4943 42.6738 15.507 43.3145 16.995L46.1045 23.66L50.4445 13.43H51.9945L45.6395 28.31H45.0195L40.2145 16.995ZM63.5287 28.62C61.6067 28.62 59.912 28.155 58.4447 27.225C56.998 26.295 55.882 25.0343 55.0967 23.443C54.3114 21.831 53.9187 20.0433 53.9187 18.08C53.9187 16.0547 54.3424 14.1843 55.1897 12.469C56.0577 10.7537 57.2254 9.4 58.6927 8.408C60.1807 7.416 61.7927 6.92 63.5287 6.92C65.182 6.92 66.6287 7.15767 67.8687 7.633C69.1294 8.08767 70.0594 8.67667 70.6587 9.4C71.01 9.834 71.227 10.4127 71.3097 11.136C71.3924 11.8387 71.4337 12.81 71.4337 14.05H70.8137C70.421 12.0453 69.6977 10.5677 68.6437 9.617C67.5897 8.64567 66.1947 8.16 64.4587 8.16C62.2267 8.16 60.4287 8.94533 59.0647 10.516C57.7007 12.0867 57.0187 14.608 57.0187 18.08C57.0187 19.7127 57.277 21.2317 57.7937 22.637C58.331 24.0423 59.1577 25.1893 60.2737 26.078C61.3897 26.946 62.7847 27.38 64.4587 27.38C65.9674 27.38 67.2797 27.0183 68.3957 26.295C69.5324 25.5717 70.545 24.4867 71.4337 23.04L72.0537 23.505C71.103 25.365 69.925 26.6877 68.5197 27.473C67.135 28.2377 65.4714 28.62 63.5287 28.62ZM81.3859 28.31C79.9806 28.31 78.7612 27.9793 77.7279 27.318C76.6946 26.636 75.9092 25.7163 75.3719 24.559C74.8346 23.4017 74.5659 22.1203 74.5659 20.715C74.5659 19.3097 74.8346 18.0283 75.3719 16.871C75.9092 15.7137 76.6946 14.8043 77.7279 14.143C78.7612 13.461 79.9806 13.12 81.3859 13.12C82.7912 13.12 84.0106 13.461 85.0439 14.143C86.0772 14.8043 86.8626 15.7137 87.3999 16.871C87.9372 18.0283 88.2059 19.3097 88.2059 20.715C88.2059 22.1203 87.9372 23.4017 87.3999 24.559C86.8626 25.7163 86.0772 26.636 85.0439 27.318C84.0106 27.9793 82.7912 28.31 81.3859 28.31ZM81.3859 27.07C82.1506 27.07 82.8222 26.791 83.4009 26.233C84.0002 25.675 84.4549 24.9103 84.7649 23.939C85.0956 22.9677 85.2609 21.893 85.2609 20.715C85.2609 19.537 85.0956 18.4623 84.7649 17.491C84.4549 16.5197 84.0002 15.755 83.4009 15.197C82.8222 14.639 82.1506 14.36 81.3859 14.36C80.6212 14.36 79.9392 14.639 79.3399 15.197C78.7612 15.755 78.3066 16.5197 77.9759 17.491C77.6659 18.4623 77.5109 19.537 77.5109 20.715C77.5109 21.893 77.6659 22.9677 77.9759 23.939C78.3066 24.9103 78.7612 25.675 79.3399 26.233C79.9392 26.791 80.6212 27.07 81.3859 27.07ZM92.3064 17.15C92.3064 16.096 92.1617 15.321 91.8724 14.825C91.583 14.3083 91.0044 14.05 90.1364 14.05H89.5164V13.43H92.3064C93.071 13.43 93.6497 13.5333 94.0424 13.74C94.4557 13.9467 94.7554 14.2567 94.9414 14.67H95.0964C95.5304 14.236 96.0884 13.8743 96.7704 13.585C97.473 13.275 98.2584 13.12 99.1264 13.12C100.676 13.12 101.937 13.5333 102.908 14.36C103.9 15.1867 104.396 16.6333 104.396 18.7V28H101.606V18.7C101.606 17.2533 101.276 16.1993 100.614 15.538C99.9737 14.856 99.1677 14.515 98.1964 14.515C97.101 14.515 96.0677 15.0627 95.0964 16.158V28H92.3064V17.15ZM109.169 17.15C109.169 16.096 109.024 15.321 108.735 14.825C108.445 14.3083 107.867 14.05 106.999 14.05H106.379V13.43H109.169C109.933 13.43 110.512 13.5333 110.905 13.74C111.318 13.9467 111.618 14.2567 111.804 14.67H111.959C112.393 14.236 112.951 13.8743 113.633 13.585C114.335 13.275 115.121 13.12 115.989 13.12C117.539 13.12 118.799 13.5333 119.771 14.36C120.763 15.1867 121.259 16.6333 121.259 18.7V28H118.469V18.7C118.469 17.2533 118.138 16.1993 117.477 15.538C116.836 14.856 116.03 14.515 115.059 14.515C113.963 14.515 112.93 15.0627 111.959 16.158V28H109.169V17.15ZM131.239 28.31C129.834 28.31 128.645 27.9793 127.674 27.318C126.703 26.636 125.969 25.7267 125.473 24.59C124.977 23.4327 124.729 22.141 124.729 20.715C124.729 19.3097 124.977 18.0283 125.473 16.871C125.969 15.7137 126.682 14.8043 127.612 14.143C128.563 13.461 129.668 13.12 130.929 13.12C133.016 13.12 134.566 13.709 135.579 14.887C136.612 16.0443 137.129 17.7287 137.129 19.94L137.067 21.18H127.674C127.674 22.916 128.046 24.3317 128.79 25.427C129.534 26.5223 130.557 27.07 131.859 27.07C132.83 27.07 133.647 26.8633 134.308 26.45C134.99 26.0367 135.62 25.4167 136.199 24.59L136.819 25.055C136.137 26.1917 135.341 27.0183 134.432 27.535C133.523 28.0517 132.458 28.31 131.239 28.31ZM134.184 19.94C134.184 18.1213 133.915 16.7367 133.378 15.786C132.841 14.8353 132.024 14.36 130.929 14.36C130.309 14.36 129.751 14.608 129.255 15.104C128.759 15.5793 128.366 16.2407 128.077 17.088C127.808 17.9353 127.674 18.886 127.674 19.94H134.184ZM146.686 28.31C145.198 28.31 143.937 27.9793 142.904 27.318C141.891 26.636 141.126 25.7267 140.61 24.59C140.114 23.4327 139.866 22.141 139.866 20.715C139.866 19.289 140.114 18.0077 140.61 16.871C141.126 15.7137 141.891 14.8043 142.904 14.143C143.937 13.461 145.198 13.12 146.686 13.12C148.959 13.12 150.457 13.4817 151.181 14.205C151.532 14.5563 151.749 14.9903 151.832 15.507C151.914 16.003 151.956 16.9123 151.956 18.235H151.336C151.253 16.9537 150.85 15.9927 150.127 15.352C149.403 14.6907 148.463 14.36 147.306 14.36C145.818 14.36 144.691 14.949 143.927 16.127C143.183 17.305 142.811 18.8343 142.811 20.715C142.811 22.5957 143.183 24.125 143.927 25.303C144.691 26.481 145.818 27.07 147.306 27.07C148.36 27.07 149.228 26.8737 149.91 26.481C150.592 26.0677 151.222 25.4373 151.801 24.59L152.421 25.055C151.739 26.2123 150.933 27.0493 150.003 27.566C149.073 28.062 147.967 28.31 146.686 28.31ZM159.997 28.31C158.84 28.31 157.93 27.9793 157.269 27.318C156.608 26.6567 156.277 25.644 156.277 24.28V14.67H154.107V13.43H156.277V10.64L157.827 8.78H159.067V13.43H162.787V14.67H159.067V24.28C159.067 26.14 159.79 27.07 161.237 27.07C161.733 27.07 162.146 27.0183 162.477 26.915C162.828 26.8117 163.19 26.6567 163.562 26.45L163.872 27.07C163.397 27.4213 162.87 27.721 162.291 27.969C161.712 28.1963 160.948 28.31 159.997 28.31Z" fill="#B3EFFF"/>
</svg>
