<svg width="97" height="35" viewBox="0 0 97 35" fill="none" xmlns="http://www.w3.org/2000/svg">
<path d="M2.862 13.42C2.862 12.502 2.736 11.827 2.484 11.395C2.232 10.945 1.728 10.72 0.972 10.72H0.432V10.18H7.506C10.998 10.18 13.635 10.954 15.417 12.502C17.217 14.05 18.117 16.21 18.117 18.982C18.117 20.764 17.739 22.339 16.983 23.707C16.227 25.057 15.102 26.11 13.608 26.866C12.132 27.622 10.332 28 8.208 28H2.862V13.42ZM8.127 27.055C9.459 27.055 10.656 26.731 11.718 26.083C12.798 25.417 13.644 24.49 14.256 23.302C14.868 22.096 15.174 20.692 15.174 19.09C15.174 17.524 14.868 16.138 14.256 14.932C13.662 13.726 12.825 12.79 11.745 12.124C10.665 11.458 9.441 11.125 8.073 11.125C7.209 11.125 6.309 11.269 5.373 11.557V26.704C6.381 26.938 7.299 27.055 8.127 27.055ZM26.1858 28.27C24.9618 28.27 23.9268 27.982 23.0808 27.406C22.2348 26.812 21.5958 26.02 21.1638 25.03C20.7318 24.022 20.5158 22.897 20.5158 21.655C20.5158 20.431 20.7318 19.315 21.1638 18.307C21.5958 17.299 22.2168 16.507 23.0268 15.931C23.8548 15.337 24.8178 15.04 25.9158 15.04C27.7338 15.04 29.0838 15.553 29.9658 16.579C30.8658 17.587 31.3158 19.054 31.3158 20.98L31.2618 22.06H23.0808C23.0808 23.572 23.4048 24.805 24.0528 25.759C24.7008 26.713 25.5918 27.19 26.7258 27.19C27.5718 27.19 28.2828 27.01 28.8588 26.65C29.4528 26.29 30.0018 25.75 30.5058 25.03L31.0458 25.435C30.4518 26.425 29.7588 27.145 28.9668 27.595C28.1748 28.045 27.2478 28.27 26.1858 28.27ZM28.7508 20.98C28.7508 19.396 28.5168 18.19 28.0488 17.362C27.5808 16.534 26.8698 16.12 25.9158 16.12C25.3758 16.12 24.8898 16.336 24.4578 16.768C24.0258 17.182 23.6838 17.758 23.4318 18.496C23.1978 19.234 23.0808 20.062 23.0808 20.98H28.7508ZM35.0255 18.415C34.5935 17.407 34.1795 16.705 33.7835 16.309C33.3875 15.895 32.8655 15.67 32.2175 15.634V15.094C32.3075 15.094 32.4335 15.085 32.5955 15.067C32.7755 15.049 32.9555 15.04 33.1355 15.04C34.0895 15.04 34.9535 15.283 35.7275 15.769C36.5015 16.237 37.1675 17.119 37.7255 18.415L40.1555 24.22L43.9355 15.31H45.2855L39.7505 28.27H39.2105L35.0255 18.415ZM55.3314 28.54C53.6574 28.54 52.1814 28.135 50.9034 27.325C49.6434 26.515 48.6714 25.417 47.9874 24.031C47.3034 22.627 46.9614 21.07 46.9614 19.36C46.9614 17.596 47.3304 15.967 48.0684 14.473C48.8244 12.979 49.8414 11.8 51.1194 10.936C52.4154 10.072 53.8194 9.64 55.3314 9.64C56.7714 9.64 58.0314 9.847 59.1114 10.261C60.2094 10.657 61.0194 11.17 61.5414 11.8C61.8474 12.178 62.0364 12.682 62.1084 13.312C62.1804 13.924 62.2164 14.77 62.2164 15.85H61.6764C61.3344 14.104 60.7044 12.817 59.7864 11.989C58.8684 11.143 57.6534 10.72 56.1414 10.72C54.1974 10.72 52.6314 11.404 51.4434 12.772C50.2554 14.14 49.6614 16.336 49.6614 19.36C49.6614 20.782 49.8864 22.105 50.3364 23.329C50.8044 24.553 51.5244 25.552 52.4964 26.326C53.4684 27.082 54.6834 27.46 56.1414 27.46C57.4554 27.46 58.5984 27.145 59.5704 26.515C60.5604 25.885 61.4424 24.94 62.2164 23.68L62.7564 24.085C61.9284 25.705 60.9024 26.857 59.6784 27.541C58.4724 28.207 57.0234 28.54 55.3314 28.54ZM70.8845 28.27C69.6605 28.27 68.5985 27.982 67.6985 27.406C66.7985 26.812 66.1145 26.011 65.6465 25.003C65.1785 23.995 64.9445 22.879 64.9445 21.655C64.9445 20.431 65.1785 19.315 65.6465 18.307C66.1145 17.299 66.7985 16.507 67.6985 15.931C68.5985 15.337 69.6605 15.04 70.8845 15.04C72.1085 15.04 73.1705 15.337 74.0705 15.931C74.9705 16.507 75.6545 17.299 76.1225 18.307C76.5905 19.315 76.8245 20.431 76.8245 21.655C76.8245 22.879 76.5905 23.995 76.1225 25.003C75.6545 26.011 74.9705 26.812 74.0705 27.406C73.1705 27.982 72.1085 28.27 70.8845 28.27ZM70.8845 27.19C71.5505 27.19 72.1355 26.947 72.6395 26.461C73.1615 25.975 73.5575 25.309 73.8275 24.463C74.1155 23.617 74.2595 22.681 74.2595 21.655C74.2595 20.629 74.1155 19.693 73.8275 18.847C73.5575 18.001 73.1615 17.335 72.6395 16.849C72.1355 16.363 71.5505 16.12 70.8845 16.12C70.2185 16.12 69.6245 16.363 69.1025 16.849C68.5985 17.335 68.2025 18.001 67.9145 18.847C67.6445 19.693 67.5095 20.629 67.5095 21.655C67.5095 22.681 67.6445 23.617 67.9145 24.463C68.2025 25.309 68.5985 25.975 69.1025 26.461C69.6245 26.947 70.2185 27.19 70.8845 27.19ZM80.3959 18.55C80.3959 17.632 80.2699 16.957 80.0179 16.525C79.7659 16.075 79.2619 15.85 78.5059 15.85H77.9659V15.31H80.3959C81.0619 15.31 81.5659 15.4 81.9079 15.58C82.2679 15.76 82.5289 16.03 82.6909 16.39H82.8259C83.2039 16.012 83.6899 15.697 84.2839 15.445C84.8959 15.175 85.5799 15.04 86.3359 15.04C87.6859 15.04 88.7839 15.4 89.6299 16.12C90.4939 16.84 90.9259 18.1 90.9259 19.9V28H88.4959V19.9C88.4959 18.64 88.2079 17.722 87.6319 17.146C87.0739 16.552 86.3719 16.255 85.5259 16.255C84.5719 16.255 83.6719 16.732 82.8259 17.686V28H80.3959V18.55Z" fill="#B3EFFF"/>
</svg>
